<?xml version="1.0" encoding="UTF-8" standalone="no"?>
<!DOCTYPE svg PUBLIC "-//W3C//DTD SVG 1.1//EN"
 "http://www.w3.org/Graphics/SVG/1.1/DTD/svg11.dtd">
<!-- Generated by graphviz version 2.38.0 (20140413.2041)
 -->
<!-- Title: %3 Pages: 1 -->
<svg width="220pt" height="1340pt"
 viewBox="0.00 0.00 219.88 1340.00" xmlns="http://www.w3.org/2000/svg" xmlns:xlink="http://www.w3.org/1999/xlink">
<g id="graph0" class="graph" transform="scale(1 1) rotate(0) translate(4 1336)">
<title>%3</title>
<polygon fill="white" stroke="none" points="-4,4 -4,-1336 215.881,-1336 215.881,4 -4,4"/>
<!-- bitrot&#45;stub -->
<g id="node1" class="node"><title>bitrot&#45;stub</title>
<ellipse fill="none" stroke="black" cx="105.941" cy="-666" rx="60.3893" ry="18"/>
<text text-anchor="middle" x="105.941" y="-662.3" font-family="Times,serif" font-size="14.00">bitrot&#45;stub</text>
</g>
<!-- upcall -->
<g id="node2" class="node"><title>upcall</title>
<ellipse fill="none" stroke="black" cx="105.941" cy="-594" rx="38.9931" ry="18"/>
<text text-anchor="middle" x="105.941" y="-590.3" font-family="Times,serif" font-size="14.00">upcall</text>
</g>
<!-- bitrot&#45;stub&#45;&gt;upcall -->
<g id="edge1" class="edge"><title>bitrot&#45;stub&#45;&gt;upcall</title>
<path fill="none" stroke="black" d="M105.941,-647.697C105.941,-639.983 105.941,-630.712 105.941,-622.112"/>
<polygon fill="black" stroke="black" points="109.441,-622.104 105.941,-612.104 102.441,-622.104 109.441,-622.104"/>
</g>
<!-- read&#45;only -->
<g id="node8" class="node"><title>read&#45;only</title>
<ellipse fill="none" stroke="black" cx="105.941" cy="-522" rx="53.8905" ry="18"/>
<text text-anchor="middle" x="105.941" y="-518.3" font-family="Times,serif" font-size="14.00">read&#45;only</text>
</g>
<!-- upcall&#45;&gt;read&#45;only -->
<g id="edge7" class="edge"><title>upcall&#45;&gt;read&#45;only</title>
<path fill="none" stroke="black" d="M105.941,-575.697C105.941,-567.983 105.941,-558.712 105.941,-550.112"/>
<polygon fill="black" stroke="black" points="109.441,-550.104 105.941,-540.104 102.441,-550.104 109.441,-550.104"/>
</g>
<!-- quota -->
<g id="node3" class="node"><title>quota</title>
<ellipse fill="none" stroke="black" cx="105.941" cy="-882" rx="37.0935" ry="18"/>
<text text-anchor="middle" x="105.941" y="-878.3" font-family="Times,serif" font-size="14.00">quota</text>
</g>
<!-- io&#45;threads -->
<g id="node4" class="node"><title>io&#45;threads</title>
<ellipse fill="none" stroke="black" cx="105.941" cy="-810" rx="57.6901" ry="18"/>
<text text-anchor="middle" x="105.941" y="-806.3" font-family="Times,serif" font-size="14.00">io&#45;threads</text>
</g>
<!-- quota&#45;&gt;io&#45;threads -->
<g id="edge2" class="edge"><title>quota&#45;&gt;io&#45;threads</title>
<path fill="none" stroke="black" d="M105.941,-863.697C105.941,-855.983 105.941,-846.712 105.941,-838.112"/>
<polygon fill="black" stroke="black" points="109.441,-838.104 105.941,-828.104 102.441,-838.104 109.441,-838.104"/>
</g>
<!-- changelog -->
<g id="node15" class="node"><title>changelog</title>
<ellipse fill="none" stroke="black" cx="105.941" cy="-738" rx="58.4896" ry="18"/>
<text text-anchor="middle" x="105.941" y="-734.3" font-family="Times,serif" font-size="14.00">changelog</text>
</g>
<!-- io&#45;threads&#45;&gt;changelog -->
<g id="edge13" class="edge"><title>io&#45;threads&#45;&gt;changelog</title>
<path fill="none" stroke="black" d="M105.941,-791.697C105.941,-783.983 105.941,-774.712 105.941,-766.112"/>
<polygon fill="black" stroke="black" points="109.441,-766.104 105.941,-756.104 102.441,-766.104 109.441,-766.104"/>
</g>
<!-- index -->
<g id="node5" class="node"><title>index</title>
<ellipse fill="none" stroke="black" cx="105.941" cy="-1170" rx="36.2938" ry="18"/>
<text text-anchor="middle" x="105.941" y="-1166.3" font-family="Times,serif" font-size="14.00">index</text>
</g>
<!-- barrier -->
<g id="node6" class="node"><title>barrier</title>
<ellipse fill="none" stroke="black" cx="105.941" cy="-1098" rx="43.5923" ry="18"/>
<text text-anchor="middle" x="105.941" y="-1094.3" font-family="Times,serif" font-size="14.00">barrier</text>
</g>
<!-- index&#45;&gt;barrier -->
<g id="edge3" class="edge"><title>index&#45;&gt;barrier</title>
<path fill="none" stroke="black" d="M105.941,-1151.7C105.941,-1143.98 105.941,-1134.71 105.941,-1126.11"/>
<polygon fill="black" stroke="black" points="109.441,-1126.1 105.941,-1116.1 102.441,-1126.1 109.441,-1126.1"/>
</g>
<!-- decompounder -->
<g id="node16" class="node"><title>decompounder</title>
<ellipse fill="none" stroke="black" cx="105.941" cy="-1026" rx="79.8859" ry="18"/>
<text text-anchor="middle" x="105.941" y="-1022.3" font-family="Times,serif" font-size="14.00">decompounder</text>
</g>
<!-- barrier&#45;&gt;decompounder -->
<g id="edge12" class="edge"><title>barrier&#45;&gt;decompounder</title>
<path fill="none" stroke="black" d="M105.941,-1079.7C105.941,-1071.98 105.941,-1062.71 105.941,-1054.11"/>
<polygon fill="black" stroke="black" points="109.441,-1054.1 105.941,-1044.1 102.441,-1054.1 109.441,-1054.1"/>
</g>
<!-- marker -->
<g id="node7" class="node"><title>marker</title>
<ellipse fill="none" stroke="black" cx="105.941" cy="-1242" rx="44.6926" ry="18"/>
<text text-anchor="middle" x="105.941" y="-1238.3" font-family="Times,serif" font-size="14.00">marker</text>
</g>
<!-- marker&#45;&gt;index -->
<g id="edge4" class="edge"><title>marker&#45;&gt;index</title>
<path fill="none" stroke="black" d="M105.941,-1223.7C105.941,-1215.98 105.941,-1206.71 105.941,-1198.11"/>
<polygon fill="black" stroke="black" points="109.441,-1198.1 105.941,-1188.1 102.441,-1198.1 109.441,-1198.1"/>
</g>
<!-- worm -->
<g id="node9" class="node"><title>worm</title>
<ellipse fill="none" stroke="black" cx="105.941" cy="-450" rx="37.0935" ry="18"/>
<text text-anchor="middle" x="105.941" y="-446.3" font-family="Times,serif" font-size="14.00">worm</text>
</g>
<!-- read&#45;only&#45;&gt;worm -->
<g id="edge5" class="edge"><title>read&#45;only&#45;&gt;worm</title>
<path fill="none" stroke="black" d="M105.941,-503.697C105.941,-495.983 105.941,-486.712 105.941,-478.112"/>
<polygon fill="black" stroke="black" points="109.441,-478.104 105.941,-468.104 102.441,-478.104 109.441,-478.104"/>
</g>
<!-- leases -->
<g id="node17" class="node"><title>leases</title>
<ellipse fill="none" stroke="black" cx="105.941" cy="-378" rx="39.7935" ry="18"/>
<text text-anchor="middle" x="105.941" y="-374.3" font-family="Times,serif" font-size="14.00">leases</text>
</g>
<!-- worm&#45;&gt;leases -->
<g id="edge14" class="edge"><title>worm&#45;&gt;leases</title>
<path fill="none" stroke="black" d="M105.941,-431.697C105.941,-423.983 105.941,-414.712 105.941,-406.112"/>
<polygon fill="black" stroke="black" points="109.441,-406.104 105.941,-396.104 102.441,-406.104 109.441,-406.104"/>
</g>
<!-- io&#45;stats -->
<g id="node10" class="node"><title>io&#45;stats</title>
<ellipse fill="none" stroke="black" cx="105.941" cy="-954" rx="44.6926" ry="18"/>
<text text-anchor="middle" x="105.941" y="-950.3" font-family="Times,serif" font-size="14.00">io&#45;stats</text>
</g>
<!-- io&#45;stats&#45;&gt;quota -->
<g id="edge6" class="edge"><title>io&#45;stats&#45;&gt;quota</title>
<path fill="none" stroke="black" d="M105.941,-935.697C105.941,-927.983 105.941,-918.712 105.941,-910.112"/>
<polygon fill="black" stroke="black" points="109.441,-910.104 105.941,-900.104 102.441,-910.104 109.441,-910.104"/>
</g>
<!-- locks -->
<g id="node11" class="node"><title>locks</title>
<ellipse fill="none" stroke="black" cx="105.941" cy="-306" rx="35.194" ry="18"/>
<text text-anchor="middle" x="105.941" y="-302.3" font-family="Times,serif" font-size="14.00">locks</text>
</g>
<!-- access&#45;control -->
<g id="node12" class="node"><title>access&#45;control</title>
<ellipse fill="none" stroke="black" cx="105.941" cy="-234" rx="77.9862" ry="18"/>
<text text-anchor="middle" x="105.941" y="-230.3" font-family="Times,serif" font-size="14.00">access&#45;control</text>
</g>
<!-- locks&#45;&gt;access&#45;control -->
<g id="edge8" class="edge"><title>locks&#45;&gt;access&#45;control</title>
<path fill="none" stroke="black" d="M105.941,-287.697C105.941,-279.983 105.941,-270.712 105.941,-262.112"/>
<polygon fill="black" stroke="black" points="109.441,-262.104 105.941,-252.104 102.441,-262.104 109.441,-262.104"/>
</g>
<!-- changetimerecorder -->
<g id="node13" class="node"><title>changetimerecorder</title>
<ellipse fill="none" stroke="black" cx="105.941" cy="-162" rx="105.881" ry="18"/>
<text text-anchor="middle" x="105.941" y="-158.3" font-family="Times,serif" font-size="14.00">changetimerecorder</text>
</g>
<!-- access&#45;control&#45;&gt;changetimerecorder -->
<g id="edge10" class="edge"><title>access&#45;control&#45;&gt;changetimerecorder</title>
<path fill="none" stroke="black" d="M105.941,-215.697C105.941,-207.983 105.941,-198.712 105.941,-190.112"/>
<polygon fill="black" stroke="black" points="109.441,-190.104 105.941,-180.104 102.441,-190.104 109.441,-190.104"/>
</g>
<!-- trash -->
<g id="node14" class="node"><title>trash</title>
<ellipse fill="none" stroke="black" cx="105.941" cy="-90" rx="35.194" ry="18"/>
<text text-anchor="middle" x="105.941" y="-86.3" font-family="Times,serif" font-size="14.00">trash</text>
</g>
<!-- changetimerecorder&#45;&gt;trash -->
<g id="edge9" class="edge"><title>changetimerecorder&#45;&gt;trash</title>
<path fill="none" stroke="black" d="M105.941,-143.697C105.941,-135.983 105.941,-126.712 105.941,-118.112"/>
<polygon fill="black" stroke="black" points="109.441,-118.104 105.941,-108.104 102.441,-118.104 109.441,-118.104"/>
</g>
<!-- posix -->
<g id="node18" class="node"><title>posix</title>
<ellipse fill="none" stroke="black" cx="105.941" cy="-18" rx="35.194" ry="18"/>
<text text-anchor="middle" x="105.941" y="-14.3" font-family="Times,serif" font-size="14.00">posix</text>
</g>
<!-- trash&#45;&gt;posix -->
<g id="edge15" class="edge"><title>trash&#45;&gt;posix</title>
<path fill="none" stroke="black" d="M105.941,-71.6966C105.941,-63.9827 105.941,-54.7125 105.941,-46.1124"/>
<polygon fill="black" stroke="black" points="109.441,-46.1043 105.941,-36.1043 102.441,-46.1044 109.441,-46.1043"/>
</g>
<!-- changelog&#45;&gt;bitrot&#45;stub -->
<g id="edge11" class="edge"><title>changelog&#45;&gt;bitrot&#45;stub</title>
<path fill="none" stroke="black" d="M105.941,-719.697C105.941,-711.983 105.941,-702.712 105.941,-694.112"/>
<polygon fill="black" stroke="black" points="109.441,-694.104 105.941,-684.104 102.441,-694.104 109.441,-694.104"/>
</g>
<!-- decompounder&#45;&gt;io&#45;stats -->
<g id="edge16" class="edge"><title>decompounder&#45;&gt;io&#45;stats</title>
<path fill="none" stroke="black" d="M105.941,-1007.7C105.941,-999.983 105.941,-990.712 105.941,-982.112"/>
<polygon fill="black" stroke="black" points="109.441,-982.104 105.941,-972.104 102.441,-982.104 109.441,-982.104"/>
</g>
<!-- leases&#45;&gt;locks -->
<g id="edge18" class="edge"><title>leases&#45;&gt;locks</title>
<path fill="none" stroke="black" d="M105.941,-359.697C105.941,-351.983 105.941,-342.712 105.941,-334.112"/>
<polygon fill="black" stroke="black" points="109.441,-334.104 105.941,-324.104 102.441,-334.104 109.441,-334.104"/>
</g>
<!-- server -->
<g id="node19" class="node"><title>server</title>
<ellipse fill="none" stroke="black" cx="105.941" cy="-1314" rx="40.0939" ry="18"/>
<text text-anchor="middle" x="105.941" y="-1310.3" font-family="Times,serif" font-size="14.00">server</text>
</g>
<!-- server&#45;&gt;marker -->
<g id="edge17" class="edge"><title>server&#45;&gt;marker</title>
<path fill="none" stroke="black" d="M105.941,-1295.7C105.941,-1287.98 105.941,-1278.71 105.941,-1270.11"/>
<polygon fill="black" stroke="black" points="109.441,-1270.1 105.941,-1260.1 102.441,-1270.1 109.441,-1270.1"/>
</g>
</g>
</svg>
