<?xml version="1.0" encoding="UTF-8" standalone="no"?>
<!DOCTYPE svg PUBLIC "-//W3C//DTD SVG 1.1//EN"
 "http://www.w3.org/Graphics/SVG/1.1/DTD/svg11.dtd">
<!-- Generated by graphviz version 2.38.0 (20140413.2041)
 -->
<!-- Title: %3 Pages: 1 -->
<svg width="942pt" height="620pt"
 viewBox="0.00 0.00 942.00 620.00" xmlns="http://www.w3.org/2000/svg" xmlns:xlink="http://www.w3.org/1999/xlink">
<g id="graph0" class="graph" transform="scale(1 1) rotate(0) translate(4 616)">
<title>%3</title>
<polygon fill="white" stroke="none" points="-4,4 -4,-616 938,-616 938,4 -4,4"/>
<!-- changelog -->
<g id="node1" class="node"><title>changelog</title>
<ellipse fill="none" stroke="black" cx="86" cy="-234" rx="58.4896" ry="18"/>
<text text-anchor="middle" x="86" y="-230.3" font-family="Times,serif" font-size="14.00">changelog</text>
</g>
<!-- posix -->
<g id="node2" class="node"><title>posix</title>
<ellipse fill="none" stroke="black" cx="86" cy="-18" rx="35.194" ry="18"/>
<text text-anchor="middle" x="86" y="-14.3" font-family="Times,serif" font-size="14.00">posix</text>
</g>
<!-- changelog&#45;&gt;posix -->
<g id="edge1" class="edge"><title>changelog&#45;&gt;posix</title>
<path fill="none" stroke="black" d="M86,-215.849C86,-178.832 86,-91.1809 86,-46.3863"/>
<polygon fill="black" stroke="black" points="89.5001,-46.2324 86,-36.2325 82.5001,-46.2325 89.5001,-46.2324"/>
</g>
<!-- access&#45;control -->
<g id="node3" class="node"><title>access&#45;control</title>
<ellipse fill="none" stroke="black" cx="278" cy="-234" rx="77.9862" ry="18"/>
<text text-anchor="middle" x="278" y="-230.3" font-family="Times,serif" font-size="14.00">access&#45;control</text>
</g>
<!-- changetimerecorder -->
<g id="node4" class="node"><title>changetimerecorder</title>
<ellipse fill="none" stroke="black" cx="294" cy="-162" rx="105.881" ry="18"/>
<text text-anchor="middle" x="294" y="-158.3" font-family="Times,serif" font-size="14.00">changetimerecorder</text>
</g>
<!-- access&#45;control&#45;&gt;changetimerecorder -->
<g id="edge2" class="edge"><title>access&#45;control&#45;&gt;changetimerecorder</title>
<path fill="none" stroke="black" d="M281.955,-215.697C283.718,-207.983 285.837,-198.712 287.803,-190.112"/>
<polygon fill="black" stroke="black" points="291.274,-190.633 290.09,-180.104 284.45,-189.073 291.274,-190.633"/>
</g>
<!-- trash -->
<g id="node11" class="node"><title>trash</title>
<ellipse fill="none" stroke="black" cx="294" cy="-90" rx="35.194" ry="18"/>
<text text-anchor="middle" x="294" y="-86.3" font-family="Times,serif" font-size="14.00">trash</text>
</g>
<!-- changetimerecorder&#45;&gt;trash -->
<g id="edge6" class="edge"><title>changetimerecorder&#45;&gt;trash</title>
<path fill="none" stroke="black" d="M294,-143.697C294,-135.983 294,-126.712 294,-118.112"/>
<polygon fill="black" stroke="black" points="297.5,-118.104 294,-108.104 290.5,-118.104 297.5,-118.104"/>
</g>
<!-- marker -->
<g id="node5" class="node"><title>marker</title>
<ellipse fill="none" stroke="black" cx="650" cy="-450" rx="44.6926" ry="18"/>
<text text-anchor="middle" x="650" y="-446.3" font-family="Times,serif" font-size="14.00">marker</text>
</g>
<!-- io&#45;threads -->
<g id="node6" class="node"><title>io&#45;threads</title>
<ellipse fill="none" stroke="black" cx="432" cy="-306" rx="57.6901" ry="18"/>
<text text-anchor="middle" x="432" y="-302.3" font-family="Times,serif" font-size="14.00">io&#45;threads</text>
</g>
<!-- marker&#45;&gt;io&#45;threads -->
<g id="edge3" class="edge"><title>marker&#45;&gt;io&#45;threads</title>
<path fill="none" stroke="black" d="M637.665,-432.519C622.287,-412.945 594.307,-380.388 564,-360 539.29,-343.377 508.569,-330.655 482.983,-321.846"/>
<polygon fill="black" stroke="black" points="484.045,-318.511 473.452,-318.662 481.827,-325.15 484.045,-318.511"/>
</g>
<!-- io&#45;threads&#45;&gt;changelog -->
<g id="edge11" class="edge"><title>io&#45;threads&#45;&gt;changelog</title>
<path fill="none" stroke="black" d="M384.977,-295.487C322.234,-282.793 211.208,-260.331 143.541,-246.641"/>
<polygon fill="black" stroke="black" points="143.971,-243.157 133.476,-244.605 142.583,-250.018 143.971,-243.157"/>
</g>
<!-- io&#45;threads&#45;&gt;access&#45;control -->
<g id="edge9" class="edge"><title>io&#45;threads&#45;&gt;access&#45;control</title>
<path fill="none" stroke="black" d="M400.836,-290.834C377.924,-280.42 346.498,-266.135 321.169,-254.622"/>
<polygon fill="black" stroke="black" points="322.342,-251.311 311.79,-250.359 319.445,-257.683 322.342,-251.311"/>
</g>
<!-- io&#45;threads&#45;&gt;changetimerecorder -->
<g id="edge12" class="edge"><title>io&#45;threads&#45;&gt;changetimerecorder</title>
<path fill="none" stroke="black" d="M421.414,-288.135C409.166,-269.352 387.748,-238.656 365,-216 353.842,-204.888 340.254,-194.187 327.964,-185.346"/>
<polygon fill="black" stroke="black" points="329.902,-182.43 319.708,-179.54 325.875,-188.156 329.902,-182.43"/>
</g>
<!-- read&#45;only -->
<g id="node9" class="node"><title>read&#45;only</title>
<ellipse fill="none" stroke="black" cx="504" cy="-234" rx="53.8905" ry="18"/>
<text text-anchor="middle" x="504" y="-230.3" font-family="Times,serif" font-size="14.00">read&#45;only</text>
</g>
<!-- io&#45;threads&#45;&gt;read&#45;only -->
<g id="edge14" class="edge"><title>io&#45;threads&#45;&gt;read&#45;only</title>
<path fill="none" stroke="black" d="M448.699,-288.765C458.059,-279.665 469.89,-268.162 480.205,-258.134"/>
<polygon fill="black" stroke="black" points="482.661,-260.628 487.391,-251.147 477.782,-255.609 482.661,-260.628"/>
</g>
<!-- worm -->
<g id="node10" class="node"><title>worm</title>
<ellipse fill="none" stroke="black" cx="472" cy="-162" rx="37.0935" ry="18"/>
<text text-anchor="middle" x="472" y="-158.3" font-family="Times,serif" font-size="14.00">worm</text>
</g>
<!-- io&#45;threads&#45;&gt;worm -->
<g id="edge16" class="edge"><title>io&#45;threads&#45;&gt;worm</title>
<path fill="none" stroke="black" d="M431.595,-287.826C431.653,-269.569 433.157,-240.069 441,-216 444.153,-206.324 449.266,-196.494 454.438,-187.971"/>
<polygon fill="black" stroke="black" points="457.542,-189.613 459.984,-179.303 451.646,-185.84 457.542,-189.613"/>
</g>
<!-- bitrot&#45;stub -->
<g id="node13" class="node"><title>bitrot&#45;stub</title>
<ellipse fill="none" stroke="black" cx="674" cy="-234" rx="60.3893" ry="18"/>
<text text-anchor="middle" x="674" y="-230.3" font-family="Times,serif" font-size="14.00">bitrot&#45;stub</text>
</g>
<!-- io&#45;threads&#45;&gt;bitrot&#45;stub -->
<g id="edge10" class="edge"><title>io&#45;threads&#45;&gt;bitrot&#45;stub</title>
<path fill="none" stroke="black" d="M472.778,-293.205C513.98,-281.287 577.767,-262.836 622.45,-249.911"/>
<polygon fill="black" stroke="black" points="623.608,-253.22 632.242,-247.079 621.663,-246.495 623.608,-253.22"/>
</g>
<!-- leases -->
<g id="node14" class="node"><title>leases</title>
<ellipse fill="none" stroke="black" cx="829" cy="-162" rx="39.7935" ry="18"/>
<text text-anchor="middle" x="829" y="-158.3" font-family="Times,serif" font-size="14.00">leases</text>
</g>
<!-- io&#45;threads&#45;&gt;leases -->
<g id="edge13" class="edge"><title>io&#45;threads&#45;&gt;leases</title>
<path fill="none" stroke="black" d="M473.521,-293.286C501.273,-284.383 537.889,-270.505 567,-252 586.633,-239.519 584.532,-227.059 605,-216 660.521,-186.003 732.778,-172.846 779.998,-167.168"/>
<polygon fill="black" stroke="black" points="780.431,-170.642 789.972,-166.036 779.641,-163.687 780.431,-170.642"/>
</g>
<!-- upcall -->
<g id="node15" class="node"><title>upcall</title>
<ellipse fill="none" stroke="black" cx="829" cy="-234" rx="38.9931" ry="18"/>
<text text-anchor="middle" x="829" y="-230.3" font-family="Times,serif" font-size="14.00">upcall</text>
</g>
<!-- io&#45;threads&#45;&gt;upcall -->
<g id="edge15" class="edge"><title>io&#45;threads&#45;&gt;upcall</title>
<path fill="none" stroke="black" d="M482.166,-296.869C543.699,-286.799 651.157,-268.9 743,-252 756.359,-249.542 770.856,-246.731 784.074,-244.113"/>
<polygon fill="black" stroke="black" points="784.769,-247.543 793.893,-242.157 783.401,-240.678 784.769,-247.543"/>
</g>
<!-- decompounder -->
<g id="node7" class="node"><title>decompounder</title>
<ellipse fill="none" stroke="black" cx="540" cy="-522" rx="79.8859" ry="18"/>
<text text-anchor="middle" x="540" y="-518.3" font-family="Times,serif" font-size="14.00">decompounder</text>
</g>
<!-- io&#45;stats -->
<g id="node8" class="node"><title>io&#45;stats</title>
<ellipse fill="none" stroke="black" cx="540" cy="-450" rx="44.6926" ry="18"/>
<text text-anchor="middle" x="540" y="-446.3" font-family="Times,serif" font-size="14.00">io&#45;stats</text>
</g>
<!-- decompounder&#45;&gt;io&#45;stats -->
<g id="edge4" class="edge"><title>decompounder&#45;&gt;io&#45;stats</title>
<path fill="none" stroke="black" d="M540,-503.697C540,-495.983 540,-486.712 540,-478.112"/>
<polygon fill="black" stroke="black" points="543.5,-478.104 540,-468.104 536.5,-478.104 543.5,-478.104"/>
</g>
<!-- quota -->
<g id="node16" class="node"><title>quota</title>
<ellipse fill="none" stroke="black" cx="518" cy="-378" rx="37.0935" ry="18"/>
<text text-anchor="middle" x="518" y="-374.3" font-family="Times,serif" font-size="14.00">quota</text>
</g>
<!-- io&#45;stats&#45;&gt;quota -->
<g id="edge17" class="edge"><title>io&#45;stats&#45;&gt;quota</title>
<path fill="none" stroke="black" d="M534.674,-432.055C532.225,-424.261 529.258,-414.822 526.511,-406.079"/>
<polygon fill="black" stroke="black" points="529.767,-404.766 523.429,-396.275 523.089,-406.865 529.767,-404.766"/>
</g>
<!-- read&#45;only&#45;&gt;worm -->
<g id="edge5" class="edge"><title>read&#45;only&#45;&gt;worm</title>
<path fill="none" stroke="black" d="M496.254,-216.055C492.559,-207.973 488.055,-198.121 483.937,-189.112"/>
<polygon fill="black" stroke="black" points="487.016,-187.429 479.675,-179.789 480.649,-190.339 487.016,-187.429"/>
</g>
<!-- trash&#45;&gt;posix -->
<g id="edge18" class="edge"><title>trash&#45;&gt;posix</title>
<path fill="none" stroke="black" d="M265.515,-79.4136C228.82,-67.0643 164.912,-45.5571 124.077,-31.8143"/>
<polygon fill="black" stroke="black" points="125.068,-28.4552 114.474,-28.5827 122.836,-35.0896 125.068,-28.4552"/>
</g>
<!-- locks -->
<g id="node12" class="node"><title>locks</title>
<ellipse fill="none" stroke="black" cx="187" cy="-306" rx="35.194" ry="18"/>
<text text-anchor="middle" x="187" y="-302.3" font-family="Times,serif" font-size="14.00">locks</text>
</g>
<!-- locks&#45;&gt;access&#45;control -->
<g id="edge7" class="edge"><title>locks&#45;&gt;access&#45;control</title>
<path fill="none" stroke="black" d="M205.855,-290.496C218.215,-280.989 234.624,-268.367 248.669,-257.562"/>
<polygon fill="black" stroke="black" points="250.826,-260.319 256.618,-251.448 246.558,-254.771 250.826,-260.319"/>
</g>
<!-- locks&#45;&gt;changetimerecorder -->
<g id="edge8" class="edge"><title>locks&#45;&gt;changetimerecorder</title>
<path fill="none" stroke="black" d="M183.058,-288.092C179.602,-268.992 177.056,-237.743 191,-216 200.665,-200.929 216.065,-189.931 232.041,-181.995"/>
<polygon fill="black" stroke="black" points="233.845,-185.018 241.476,-177.669 230.927,-178.655 233.845,-185.018"/>
</g>
<!-- upcall&#45;&gt;leases -->
<g id="edge20" class="edge"><title>upcall&#45;&gt;leases</title>
<path fill="none" stroke="black" d="M829,-215.697C829,-207.983 829,-198.712 829,-190.112"/>
<polygon fill="black" stroke="black" points="832.5,-190.104 829,-180.104 825.5,-190.104 832.5,-190.104"/>
</g>
<!-- quota&#45;&gt;io&#45;threads -->
<g id="edge19" class="edge"><title>quota&#45;&gt;io&#45;threads</title>
<path fill="none" stroke="black" d="M499.762,-362.155C488.084,-352.65 472.71,-340.136 459.559,-329.431"/>
<polygon fill="black" stroke="black" points="461.675,-326.641 451.71,-323.043 457.256,-332.07 461.675,-326.641"/>
</g>
<!-- barrier -->
<g id="node17" class="node"><title>barrier</title>
<ellipse fill="none" stroke="black" cx="322" cy="-378" rx="43.5923" ry="18"/>
<text text-anchor="middle" x="322" y="-374.3" font-family="Times,serif" font-size="14.00">barrier</text>
</g>
<!-- barrier&#45;&gt;io&#45;threads -->
<g id="edge21" class="edge"><title>barrier&#45;&gt;io&#45;threads</title>
<path fill="none" stroke="black" d="M344.792,-362.496C360.44,-352.538 381.458,-339.163 398.939,-328.039"/>
<polygon fill="black" stroke="black" points="401.154,-330.778 407.711,-322.457 397.395,-324.873 401.154,-330.778"/>
</g>
<!-- server -->
<g id="node18" class="node"><title>server</title>
<ellipse fill="none" stroke="black" cx="540" cy="-594" rx="40.0939" ry="18"/>
<text text-anchor="middle" x="540" y="-590.3" font-family="Times,serif" font-size="14.00">server</text>
</g>
<!-- server&#45;&gt;changelog -->
<g id="edge25" class="edge"><title>server&#45;&gt;changelog</title>
<path fill="none" stroke="black" d="M499.475,-593.618C434.61,-593.098 304.828,-585.773 207,-540 152.506,-514.502 105,-511.164 105,-451 105,-451 105,-451 105,-377 105,-336.86 97.4493,-290.897 91.8678,-262.405"/>
<polygon fill="black" stroke="black" points="95.2554,-261.498 89.8449,-252.388 88.3939,-262.883 95.2554,-261.498"/>
</g>
<!-- server&#45;&gt;posix -->
<g id="edge34" class="edge"><title>server&#45;&gt;posix</title>
<path fill="none" stroke="black" d="M500.281,-590.369C410.38,-584.022 193.865,-566.412 126,-540 62.1071,-515.134 0,-519.561 0,-451 0,-451 0,-451 0,-161 0,-112.995 36.4043,-67.3467 61.8422,-41.3091"/>
<polygon fill="black" stroke="black" points="64.3822,-43.7194 69.0092,-34.1883 59.4484,-38.7537 64.3822,-43.7194"/>
</g>
<!-- server&#45;&gt;access&#45;control -->
<g id="edge22" class="edge"><title>server&#45;&gt;access&#45;control</title>
<path fill="none" stroke="black" d="M499.606,-593.379C449.033,-591.895 361.902,-582.663 303,-540 265.715,-512.994 250,-497.038 250,-451 250,-451 250,-451 250,-377 250,-336.27 261.226,-290.189 269.461,-261.862"/>
<polygon fill="black" stroke="black" points="272.817,-262.856 272.334,-252.272 266.111,-260.847 272.817,-262.856"/>
</g>
<!-- server&#45;&gt;changetimerecorder -->
<g id="edge26" class="edge"><title>server&#45;&gt;changetimerecorder</title>
<path fill="none" stroke="black" d="M577.158,-586.783C640.356,-573.852 762,-537.7 762,-451 762,-451 762,-451 762,-305 762,-264.553 772.957,-243.176 743,-216 690.491,-168.364 496.382,-188.528 426,-180 412.71,-178.39 398.675,-176.638 384.912,-174.89"/>
<polygon fill="black" stroke="black" points="385.316,-171.413 374.953,-173.621 384.43,-178.357 385.316,-171.413"/>
</g>
<!-- server&#45;&gt;marker -->
<g id="edge33" class="edge"><title>server&#45;&gt;marker</title>
<path fill="none" stroke="black" d="M575.387,-585.252C599.647,-577.936 630.198,-564.329 646,-540 657.816,-521.808 657.886,-496.835 655.533,-477.972"/>
<polygon fill="black" stroke="black" points="658.969,-477.288 653.987,-467.937 652.05,-478.353 658.969,-477.288"/>
</g>
<!-- server&#45;&gt;io&#45;threads -->
<g id="edge30" class="edge"><title>server&#45;&gt;io&#45;threads</title>
<path fill="none" stroke="black" d="M508.196,-582.662C488.25,-574.415 463.94,-560.754 451,-540 410.744,-475.436 419.258,-380.481 426.701,-334.271"/>
<polygon fill="black" stroke="black" points="430.198,-334.586 428.445,-324.138 423.3,-333.399 430.198,-334.586"/>
</g>
<!-- server&#45;&gt;decompounder -->
<g id="edge27" class="edge"><title>server&#45;&gt;decompounder</title>
<path fill="none" stroke="black" d="M540,-575.697C540,-567.983 540,-558.712 540,-550.112"/>
<polygon fill="black" stroke="black" points="543.5,-550.104 540,-540.104 536.5,-550.104 543.5,-550.104"/>
</g>
<!-- server&#45;&gt;io&#45;stats -->
<g id="edge29" class="edge"><title>server&#45;&gt;io&#45;stats</title>
<path fill="none" stroke="black" d="M572.367,-582.997C592.552,-574.892 616.914,-561.263 629,-540 636.906,-526.09 636.906,-517.91 629,-504 619.103,-486.587 600.972,-474.294 583.645,-465.961"/>
<polygon fill="black" stroke="black" points="584.717,-462.607 574.158,-461.732 581.867,-469.001 584.717,-462.607"/>
</g>
<!-- server&#45;&gt;trash -->
<g id="edge35" class="edge"><title>server&#45;&gt;trash</title>
<path fill="none" stroke="black" d="M579.203,-589.519C652.13,-582.528 805.462,-565.26 852,-540 899.271,-514.342 934,-504.785 934,-451 934,-451 934,-451 934,-233 934,-186.266 917.846,-168.421 878,-144 832.41,-116.058 468.317,-98.2827 339.204,-92.8061"/>
<polygon fill="black" stroke="black" points="339.023,-89.2955 328.885,-92.3734 338.729,-96.2894 339.023,-89.2955"/>
</g>
<!-- server&#45;&gt;locks -->
<g id="edge32" class="edge"><title>server&#45;&gt;locks</title>
<path fill="none" stroke="black" d="M500.012,-591.447C426.291,-587.74 273.088,-575.824 236,-540 179.336,-485.267 179.884,-382.89 183.864,-334.144"/>
<polygon fill="black" stroke="black" points="187.362,-334.329 184.802,-324.048 180.392,-333.681 187.362,-334.329"/>
</g>
<!-- server&#45;&gt;bitrot&#45;stub -->
<g id="edge24" class="edge"><title>server&#45;&gt;bitrot&#45;stub</title>
<path fill="none" stroke="black" d="M573.748,-583.79C626.868,-567.005 724,-526.053 724,-451 724,-451 724,-451 724,-377 724,-334.449 703.778,-288.588 689.055,-260.837"/>
<polygon fill="black" stroke="black" points="691.988,-258.906 684.118,-251.812 685.846,-262.265 691.988,-258.906"/>
</g>
<!-- server&#45;&gt;leases -->
<g id="edge31" class="edge"><title>server&#45;&gt;leases</title>
<path fill="none" stroke="black" d="M580.07,-592.004C634.108,-589.15 731.98,-578.559 805,-540 855.026,-513.584 896,-507.572 896,-451 896,-451 896,-451 896,-305 896,-264.553 895.431,-252.004 877,-216 871.312,-204.889 862.688,-194.33 854.311,-185.604"/>
<polygon fill="black" stroke="black" points="856.656,-183 847.093,-178.439 851.724,-187.968 856.656,-183"/>
</g>
<!-- server&#45;&gt;upcall -->
<g id="edge36" class="edge"><title>server&#45;&gt;upcall</title>
<path fill="none" stroke="black" d="M578.938,-588.585C637.97,-581.191 746.386,-564.646 776,-540 809.059,-512.487 814,-494.01 814,-451 814,-451 814,-451 814,-377 814,-336.773 820.027,-290.49 824.44,-261.99"/>
<polygon fill="black" stroke="black" points="827.916,-262.415 826.036,-251.988 821.004,-261.311 827.916,-262.415"/>
</g>
<!-- server&#45;&gt;barrier -->
<g id="edge23" class="edge"><title>server&#45;&gt;barrier</title>
<path fill="none" stroke="black" d="M501.107,-589.163C444.777,-582.713 344.82,-567.613 323,-540 292.846,-501.839 303.221,-441.175 312.961,-406.228"/>
<polygon fill="black" stroke="black" points="316.429,-406.843 315.917,-396.261 309.718,-404.852 316.429,-406.843"/>
</g>
<!-- index -->
<g id="node19" class="node"><title>index</title>
<ellipse fill="none" stroke="black" cx="368" cy="-522" rx="36.2938" ry="18"/>
<text text-anchor="middle" x="368" y="-518.3" font-family="Times,serif" font-size="14.00">index</text>
</g>
<!-- server&#45;&gt;index -->
<g id="edge28" class="edge"><title>server&#45;&gt;index</title>
<path fill="none" stroke="black" d="M511.211,-581.284C481.917,-569.362 436.416,-550.844 404.585,-537.889"/>
<polygon fill="black" stroke="black" points="405.76,-534.589 395.178,-534.061 403.121,-541.072 405.76,-534.589"/>
</g>
<!-- index&#45;&gt;io&#45;threads -->
<g id="edge37" class="edge"><title>index&#45;&gt;io&#45;threads</title>
<path fill="none" stroke="black" d="M373.129,-503.849C384.251,-466.662 410.654,-378.374 423.994,-333.772"/>
<polygon fill="black" stroke="black" points="427.423,-334.519 426.935,-323.935 420.717,-332.513 427.423,-334.519"/>
</g>
</g>
</svg>
